<svg id="svg" version="1.1" xmlns="http://www.w3.org/2000/svg" xmlns:xlink="http://www.w3.org/1999/xlink" width="400" height="400" viewBox="0, 0, 400,400"><g id="svgg"><path id="path0" d="M291.976 2.601 C 280.103 18.669,271.911 37.689,268.783 56.451 C 265.908 73.700,265.843 87.590,268.455 126.250 C 272.343 183.795,267.269 207.227,245.480 232.344 L 244.396 233.594 207.020 196.250 C 186.463 175.711,169.094 158.257,168.422 157.464 L 167.200 156.022 171.189 153.038 C 179.771 146.618,192.519 139.822,198.577 138.436 L 199.844 138.146 227.722 166.013 C 243.055 181.340,255.689 193.790,255.799 193.681 C 256.034 193.445,259.666 176.692,259.679 175.782 C 259.685 175.367,252.759 168.229,238.993 154.461 C 226.197 141.664,218.414 133.659,218.602 133.487 C 219.521 132.646,233.035 131.561,245.234 131.348 L 256.250 131.156 256.244 129.719 C 256.241 128.928,255.961 124.484,255.622 119.844 C 255.283 115.203,255.005 111.142,255.003 110.818 C 254.997 109.670,231.549 110.389,220.156 111.888 C 163.931 119.282,121.597 157.863,112.206 210.266 C 110.139 221.804,108.757 252.994,110.250 254.429 C 110.413 254.585,128.229 255.638,130.518 255.627 C 130.784 255.625,130.918 251.858,131.025 241.328 C 131.193 224.706,131.556 220.434,133.641 210.469 C 137.032 194.263,143.266 181.585,154.140 168.778 C 154.612 168.221,155.191 167.812,155.426 167.868 C 156.097 168.026,232.189 243.907,232.174 244.402 C 232.148 245.293,223.607 251.213,217.432 254.621 C 211.966 257.638,203.491 261.323,201.333 261.622 C 200.772 261.700,195.271 256.357,173.360 234.453 C 158.359 219.457,145.925 207.188,145.730 207.188 C 145.535 207.188,145.221 207.855,145.032 208.672 C 144.072 212.826,141.900 223.497,141.815 224.471 C 141.721 225.564,142.116 225.984,162.009 245.914 C 173.168 257.095,182.205 266.337,182.089 266.452 C 181.756 266.786,173.497 267.716,167.127 268.137 C 160.532 268.573,134.792 268.383,125.781 267.832 C 71.652 264.520,45.639 267.640,19.844 280.539 C 12.866 284.029,1.210 291.474,0.997 292.577 C 0.893 293.117,1.753 294.317,8.834 303.516 C 13.487 309.559,12.919 309.323,16.641 306.759 C 22.988 302.387,33.616 296.783,36.359 296.362 C 37.306 296.217,38.481 297.349,66.854 325.745 C 83.085 341.988,96.474 355.211,96.608 355.128 C 96.741 355.046,96.943 354.456,97.056 353.817 C 97.169 353.179,97.947 349.422,98.785 345.469 C 99.623 341.516,100.310 337.877,100.311 337.384 C 100.312 336.611,97.160 333.327,77.734 313.860 C 65.316 301.415,55.113 291.108,55.061 290.955 C 54.906 290.504,62.021 289.294,70.156 288.387 C 75.875 287.749,108.141 287.835,119.531 288.518 C 181.224 292.216,212.694 285.886,241.719 263.941 C 276.500 237.643,290.905 206.273,290.742 157.188 C 290.702 145.419,290.419 139.373,288.866 117.188 C 285.273 65.861,289.267 44.341,307.454 17.037 C 308.826 14.978,309.874 13.173,309.783 13.026 C 309.692 12.879,305.969 10.039,301.510 6.715 L 293.402 0.671 291.976 2.601 M303.438 47.590 C 303.438 48.144,303.295 49.089,303.120 49.690 C 302.945 50.290,302.736 51.133,302.654 51.563 C 302.573 51.992,302.446 52.625,302.371 52.969 C 301.984 54.759,300.626 61.219,300.466 62.031 C 300.364 62.547,300.220 63.503,300.145 64.155 L 300.010 65.342 322.056 87.390 C 334.182 99.517,344.053 109.489,343.990 109.551 C 343.928 109.613,343.322 109.738,342.642 109.828 C 340.590 110.101,339.599 110.239,338.125 110.458 C 335.379 110.867,334.826 110.940,333.281 111.096 C 332.422 111.183,331.016 111.333,330.156 111.429 C 329.297 111.526,327.469 111.671,326.094 111.752 C 324.719 111.832,322.820 111.950,321.875 112.013 C 320.930 112.076,315.816 112.141,310.512 112.157 L 300.867 112.188 301.059 114.453 C 301.234 116.512,301.452 119.608,302.116 129.465 C 302.409 133.810,301.396 133.469,313.438 133.274 C 325.384 133.082,327.396 132.990,333.438 132.362 C 337.894 131.899,339.896 131.660,341.094 131.445 C 341.609 131.353,342.945 131.131,344.063 130.951 C 347.190 130.449,347.860 130.328,349.375 129.995 C 350.148 129.825,351.133 129.626,351.563 129.553 C 351.992 129.481,352.379 129.393,352.422 129.359 C 352.465 129.325,352.746 129.272,353.047 129.242 C 353.348 129.213,353.875 129.095,354.219 128.981 C 354.563 128.868,355.195 128.712,355.625 128.635 C 356.055 128.558,356.793 128.345,357.266 128.161 C 357.738 127.978,358.125 127.891,358.125 127.969 C 358.125 128.046,358.512 127.959,358.984 127.775 C 359.457 127.591,360.125 127.397,360.469 127.344 C 360.813 127.291,362.570 126.738,364.375 126.117 C 366.180 125.495,367.954 124.932,368.317 124.865 C 368.681 124.799,370.228 124.207,371.755 123.551 C 373.282 122.895,374.552 122.426,374.577 122.507 C 374.601 122.589,374.918 122.388,375.280 122.061 C 375.641 121.734,375.938 121.580,375.938 121.719 C 375.938 121.858,376.184 121.749,376.484 121.477 C 376.785 121.205,377.139 120.977,377.271 120.972 C 377.403 120.966,378.705 120.395,380.163 119.702 C 381.622 119.009,382.890 118.446,382.981 118.451 C 383.072 118.456,383.363 118.244,383.627 117.980 C 383.891 117.716,384.287 117.500,384.506 117.500 C 384.725 117.500,385.229 117.219,385.625 116.875 C 386.021 116.531,386.535 116.250,386.767 116.250 C 386.998 116.250,387.188 116.109,387.188 115.938 C 387.188 115.766,387.345 115.625,387.537 115.625 C 387.967 115.625,391.501 113.506,392.298 112.771 C 392.617 112.477,393.285 112.068,393.783 111.861 C 394.280 111.655,394.688 111.361,394.688 111.207 C 394.688 111.053,395.180 110.693,395.781 110.406 C 396.383 110.119,396.875 109.770,396.875 109.630 C 396.875 109.490,397.031 109.375,397.221 109.375 C 398.720 109.375,400.431 106.837,399.375 106.177 C 399.031 105.963,398.750 105.625,398.750 105.427 C 398.750 105.228,398.342 104.629,397.843 104.096 C 397.345 103.562,396.983 103.125,397.038 103.125 C 397.147 103.125,396.138 101.883,395.234 100.905 C 394.934 100.579,394.784 100.313,394.903 100.313 C 395.021 100.313,394.845 100.050,394.512 99.729 C 394.179 99.409,393.695 98.828,393.438 98.439 C 393.180 98.050,392.547 97.194,392.031 96.539 C 391.516 95.883,390.620 94.706,390.042 93.923 C 389.463 93.140,388.865 92.500,388.714 92.500 C 388.562 92.500,388.438 92.312,388.438 92.081 C 388.438 91.368,386.821 90.799,386.488 91.394 C 386.336 91.666,386.080 91.807,385.918 91.707 C 385.757 91.607,385.625 91.644,385.625 91.789 C 385.625 91.934,385.238 92.282,384.766 92.562 C 384.293 92.842,383.484 93.434,382.969 93.879 C 382.453 94.323,381.924 94.687,381.794 94.687 C 381.663 94.687,380.887 95.145,380.069 95.703 C 379.251 96.262,377.917 97.067,377.104 97.493 C 376.290 97.920,375.625 98.385,375.625 98.528 C 375.625 98.670,375.484 98.700,375.313 98.594 C 375.141 98.488,374.999 98.514,374.999 98.653 C 374.998 98.792,374.330 99.174,373.514 99.500 C 372.699 99.827,371.785 100.306,371.484 100.564 C 371.184 100.823,370.938 100.939,370.938 100.822 C 370.938 100.706,370.621 100.818,370.234 101.071 C 369.848 101.325,369.427 101.541,369.299 101.551 C 369.171 101.562,368.538 101.799,367.893 102.079 C 367.247 102.358,366.438 102.689,366.094 102.814 C 365.750 102.939,365.117 103.183,364.688 103.357 C 361.914 104.477,362.204 104.476,361.030 103.369 C 360.432 102.805,347.470 89.890,332.225 74.668 C 303.389 45.876,303.438 45.922,303.438 47.590 M113.037 300.844 C 112.958 300.981,112.885 306.789,112.874 313.750 C 112.864 320.711,112.774 326.898,112.675 327.500 C 112.577 328.102,112.414 330.000,112.315 331.719 C 112.215 333.438,112.005 334.977,111.848 335.141 C 111.691 335.304,111.563 335.978,111.563 336.640 C 111.563 338.049,110.412 344.872,110.020 345.781 C 109.873 346.125,109.583 347.250,109.377 348.281 C 109.172 349.313,108.524 351.617,107.939 353.403 C 107.354 355.189,106.875 356.849,106.875 357.093 C 106.875 357.337,106.750 357.460,106.597 357.365 C 106.444 357.270,106.227 357.679,106.116 358.272 C 105.925 359.290,104.735 362.320,104.058 363.511 C 103.889 363.810,103.750 364.267,103.750 364.527 C 103.750 364.787,103.625 365.000,103.471 365.000 C 103.318 365.000,103.096 365.387,102.978 365.859 C 102.860 366.332,102.542 366.965,102.271 367.266 C 102.000 367.566,101.886 367.813,102.019 367.813 C 102.151 367.813,102.029 368.164,101.747 368.594 C 101.466 369.023,101.304 369.375,101.388 369.375 C 101.687 369.375,98.763 374.410,97.805 375.547 C 97.624 375.762,97.586 375.940,97.722 375.942 C 97.858 375.945,97.813 376.050,97.622 376.177 C 97.431 376.303,97.040 376.828,96.754 377.344 C 95.701 379.241,94.830 380.624,94.300 381.242 C 94.001 381.590,93.825 381.875,93.909 381.875 C 93.994 381.875,93.816 382.146,93.516 382.478 C 92.488 383.610,92.188 384.036,92.188 384.362 C 92.188 384.541,92.073 384.688,91.933 384.688 C 91.793 384.688,91.462 385.145,91.198 385.703 C 90.686 386.787,91.167 387.813,92.188 387.813 C 92.417 387.813,92.511 387.905,92.398 388.019 C 92.210 388.206,92.806 388.653,94.063 389.267 C 94.320 389.393,94.719 389.682,94.949 389.909 C 95.179 390.136,95.882 390.706,96.511 391.175 C 97.141 391.644,97.727 392.099,97.813 392.187 C 97.898 392.274,98.566 392.751,99.297 393.247 C 100.027 393.742,100.625 394.254,100.625 394.384 C 100.625 394.513,100.982 394.709,101.419 394.819 C 101.856 394.929,102.131 395.151,102.031 395.313 C 101.931 395.474,102.207 395.696,102.643 395.806 C 103.080 395.916,103.438 396.135,103.438 396.294 C 103.438 396.452,103.673 396.672,103.961 396.783 C 104.248 396.893,104.726 397.205,105.023 397.476 C 106.716 399.024,107.136 399.375,107.295 399.375 C 107.465 399.375,110.160 395.464,110.777 394.321 C 110.947 394.007,111.193 393.750,111.324 393.750 C 111.455 393.750,111.563 393.539,111.563 393.281 C 111.563 393.023,111.703 392.813,111.875 392.813 C 112.047 392.813,112.188 392.602,112.188 392.344 C 112.188 392.086,112.328 391.875,112.500 391.875 C 112.672 391.875,112.813 391.664,112.813 391.406 C 112.813 391.148,112.953 390.938,113.125 390.938 C 113.297 390.938,113.438 390.727,113.438 390.469 C 113.438 390.211,113.684 389.750,113.984 389.444 C 114.285 389.138,114.742 388.474,115.000 387.968 C 115.258 387.463,115.926 386.363,116.484 385.524 C 117.043 384.686,117.500 383.820,117.500 383.601 C 117.500 383.381,117.683 383.049,117.908 382.863 C 118.516 382.358,123.750 371.698,123.750 370.963 C 123.750 370.773,123.874 370.372,124.026 370.074 C 124.178 369.775,124.459 369.145,124.651 368.672 C 124.843 368.199,125.158 367.426,125.351 366.953 C 125.543 366.480,125.908 365.698,126.162 365.214 C 126.415 364.730,126.670 364.027,126.728 363.651 C 126.786 363.276,127.194 361.984,127.633 360.781 C 128.072 359.578,128.430 358.558,128.429 358.514 C 128.419 358.225,128.845 356.612,129.067 356.094 C 129.403 355.312,129.774 354.053,129.849 353.438 C 129.897 353.053,130.330 350.904,130.480 350.313 C 130.502 350.227,130.612 349.805,130.725 349.375 C 130.952 348.515,131.205 347.199,131.409 345.827 C 131.482 345.336,131.626 344.669,131.729 344.343 C 131.832 344.018,131.967 343.224,132.029 342.579 C 132.091 341.934,132.212 340.984,132.298 340.469 C 132.446 339.583,132.728 337.562,132.997 335.469 C 133.146 334.315,133.404 331.755,133.643 329.063 C 133.889 326.297,133.980 303.468,133.749 302.528 C 133.511 301.559,134.568 301.684,121.563 301.092 C 120.102 301.026,117.618 300.886,116.044 300.783 C 114.469 300.679,113.116 300.706,113.037 300.844 " stroke="none" fill="#fcfcfc" fill-rule="evenodd"></path><path id="path1" d="" stroke="none" fill="#100fcfc" fill-rule="evenodd"></path><path id="path2" d="" stroke="none" fill="#100fcfc" fill-rule="evenodd"></path><path id="path3" d="" stroke="none" fill="#100fcfc" fill-rule="evenodd"></path><path id="path4" d="" stroke="none" fill="#100fcfc" fill-rule="evenodd"></path></g></svg>